<?xml version="1.0" ?>

<svg width="800px" height="800px" viewBox="0 0 24 24" version="1.1" xmlns="http://www.w3.org/2000/svg" xmlns:xlink="http://www.w3.org/1999/xlink">

<title/>

<g fill="none" fill-rule="evenodd" id="页面-1" stroke="none" stroke-width="1">

<g id="导航图标" transform="translate(-175.000000, -207.000000)">

<g id="编组" transform="translate(175.000000, 207.000000)">

<rect fill="#FFFFFF" fill-opacity="0.01" fill-rule="nonzero" height="24" id="矩形" width="24" x="0" y="0"/>

<path d="M9.1419,21.5856 C7.46635,21.08675 5.9749,20.1606 4.793935,18.93345 C5.2345,18.4113 5.5,17.73665 5.5,17 C5.5,15.34315 4.156855,14 2.5,14 C2.399775,14 2.300695,14.0049 2.202995,14.0145 C2.069895,13.3638 2,12.69005 2,12 C2,10.9547 2.160385,9.94685 2.457895,8.9997 C2.471905,8.9999 2.48594,9 2.5,9 C4.156855,9 5.5,7.65685 5.5,6 C5.5,5.52435 5.3893,5.07455 5.1923,4.674995 C6.34875,3.599685 7.76025,2.79495 9.32605,2.36151 C9.8222,3.334035 10.83335,4.000005 12,4.000005 C13.16665,4.000005 14.1778,3.334035 14.67395,2.36151 C16.23975,2.79495 17.65125,3.599685 18.8077,4.674995 C18.6107,5.07455 18.5,5.52435 18.5,6 C18.5,7.65685 19.84315,9 21.5,9 C21.51405,9 21.5281,8.9999 21.5421,8.9997 C21.8396,9.94685 22,10.9547 22,12 C22,12.69005 21.9301,13.3638 21.797,14.0145 C21.6993,14.0049 21.60025,14 21.5,14 C19.84315,14 18.5,15.34315 18.5,17 C18.5,17.73665 18.7655,18.4113 19.20605,18.93345 C18.0251,20.1606 16.53365,21.08675 14.8581,21.5856 C14.4714,20.3759 13.338,19.5 12,19.5 C10.662,19.5 9.5286,20.3759 9.1419,21.5856 Z" id="路径" stroke="#212121" stroke-linejoin="round" stroke-width="1.5"/>

<path d="M12,15.5 C13.933,15.5 15.5,13.933 15.5,12 C15.5,10.067 13.933,8.5 12,8.5 C10.067,8.5 8.5,10.067 8.5,12 C8.5,13.933 10.067,15.5 12,15.5 Z" id="路径" stroke="#212121" stroke-linejoin="round" stroke-width="1.5"/>

</g>

</g>

</g>

</svg>